<?xml version="1.0" standalone="no"?>
<!DOCTYPE svg PUBLIC "-//W3C//DTD SVG 20010904//EN"
 "http://www.w3.org/TR/2001/REC-SVG-20010904/DTD/svg10.dtd">
<svg version="1.0" xmlns="http://www.w3.org/2000/svg"
 width="323.000000pt" height="320.000000pt" viewBox="0 0 323.000000 320.000000"
 preserveAspectRatio="xMidYMid meet">
<metadata>
Created by potrace 1.10, written by Peter Selinger 2001-2011
</metadata>
<g transform="translate(0.000000,320.000000) scale(0.100000,-0.100000)"
fill="#000000" stroke="none">
<path d="M636 2141 c-12 -19 -187 -824 -182 -837 7 -19 195 -20 218 -1 20 16
73 256 60 269 -6 6 -18 8 -28 6 -13 -2 -23 -26 -40 -106 -13 -57 -26 -107 -29
-113 -4 -5 -33 -9 -66 -9 -53 0 -60 2 -55 18 3 9 35 150 71 312 58 263 76 343
92 403 3 14 16 17 64 17 37 0 59 -4 59 -11 0 -6 -9 -50 -21 -96 -26 -109 -20
-149 18 -125 14 9 75 261 67 274 -7 11 -221 10 -228 -1z m34 -25 c0 -3 -4 -8
-10 -11 -5 -3 -10 -1 -10 4 0 6 5 11 10 11 6 0 10 -2 10 -4z m161 -9 c-1 -4
-1 -19 -1 -34 0 -33 -5 -28 -13 15 -5 22 -3 32 4 30 6 -2 10 -7 10 -11z m-331
-767 c9 -16 8 -20 -5 -20 -8 0 -15 9 -15 20 0 11 2 20 5 20 2 0 9 -9 15 -20z
m160 -10 c0 -5 -5 -10 -11 -10 -5 0 -7 5 -4 10 3 6 8 10 11 10 2 0 4 -4 4 -10z"/>
<path d="M1171 2128 c-5 -13 -21 -81 -36 -153 -15 -71 -33 -133 -39 -137 -15
-10 -373 -10 -380 0 -2 4 7 54 20 111 25 106 23 126 -12 119 -14 -2 -24 -30
-47 -131 -16 -70 -26 -134 -23 -142 4 -13 43 -15 238 -15 128 0 238 4 244 8 7
4 19 36 28 72 29 119 56 250 56 270 0 28 -38 26 -49 -2z m-471 -298 c9 -16 8
-20 -5 -20 -8 0 -15 9 -15 20 0 11 2 20 5 20 2 0 9 -9 15 -20z m421 -13 c-10
-9 -11 -8 -5 6 3 10 9 15 12 12 3 -3 0 -11 -7 -18z"/>
<path d="M1266 2133 c-3 -10 -12 -49 -21 -88 -8 -38 -24 -110 -35 -159 -21
-93 -17 -113 17 -102 15 5 25 35 51 153 32 146 41 171 60 159 6 -3 0 -48 -14
-113 -13 -60 -33 -148 -44 -198 -11 -49 -34 -151 -50 -225 -52 -232 -55 -249
-42 -262 22 -22 42 14 63 108 11 49 33 150 49 224 43 197 79 357 95 426 24 97
25 94 -54 94 -58 0 -71 -3 -75 -17z m114 -23 c0 -5 -4 -10 -10 -10 -5 0 -10 5
-10 10 0 6 5 10 10 10 6 0 10 -4 10 -10z"/>
<path d="M1507 2144 c-4 -4 -7 -15 -7 -25 0 -16 19 -18 228 -21 219 -3 229 -4
276 -28 150 -77 199 -269 113 -444 -47 -95 -136 -179 -243 -233 l-78 -38 -209
-3 -210 -3 8 28 c4 15 13 57 21 93 7 36 23 106 34 155 11 50 33 151 50 225 16
75 32 144 36 153 6 17 21 18 203 15 l196 -3 45 -30 c30 -21 54 -48 73 -85 24
-48 27 -64 24 -125 -2 -48 -11 -86 -27 -119 -34 -70 -115 -147 -200 -190 -68
-34 -79 -36 -166 -36 -52 0 -94 2 -94 4 0 5 30 146 69 326 30 138 29 166 -7
144 -9 -6 -20 -24 -23 -40 -4 -16 -21 -94 -39 -174 -41 -186 -56 -248 -65
-282 l-7 -28 124 0 c152 0 201 13 295 79 130 91 197 202 198 326 0 97 -23 152
-91 214 -30 28 -72 55 -92 61 -53 14 -449 13 -458 -1 -4 -7 -19 -69 -34 -138
-32 -143 -80 -363 -110 -495 -32 -142 -59 -128 228 -124 l247 3 64 33 c133 68
236 165 289 276 101 206 45 410 -140 508 -41 22 -54 23 -278 26 -130 2 -239 0
-243 -4z m608 -116 c30 -36 65 -101 65 -123 0 -11 -10 1 -24 30 -12 28 -35 65
-50 83 -15 17 -24 32 -19 32 5 0 17 -10 28 -22z m-595 8 c0 -3 -4 -8 -10 -11
-5 -3 -10 -1 -10 4 0 6 5 11 10 11 6 0 10 -2 10 -4z m547 -109 c24 -47 10 -38
-25 17 -24 35 -27 45 -12 31 12 -11 29 -33 37 -48z m-497 -519 c0 -5 -4 -8
-10 -8 -5 0 -10 10 -10 23 0 18 2 19 10 7 5 -8 10 -18 10 -22z m-200 -73 c10
-12 10 -15 -4 -15 -9 0 -16 7 -16 15 0 8 2 15 4 15 2 0 9 -7 16 -15z"/>
<path d="M2246 2135 c-3 -8 -8 -37 -12 -65 l-7 -50 281 0 c292 0 292 0 292 41
0 5 -110 10 -250 11 -158 2 -250 7 -250 13 0 6 98 11 270 13 l270 2 0 -27 c0
-16 -6 -39 -13 -53 -12 -25 -15 -25 -167 -30 l-154 -5 -57 -260 c-31 -143 -61
-277 -67 -297 -7 -28 -6 -41 3 -48 12 -10 45 -4 45 9 1 3 12 56 25 116 14 61
39 173 56 250 17 77 34 150 36 163 5 22 8 22 152 22 80 0 152 4 159 9 12 7 51
151 52 189 0 9 -72 12 -329 12 -282 0 -330 -2 -335 -15z m44 -19 c0 -3 -4 -8
-10 -11 -5 -3 -10 -1 -10 4 0 6 5 11 10 11 6 0 10 -2 10 -4z m590 -6 c0 -5 -4
-10 -9 -10 -6 0 -13 5 -16 10 -3 6 1 10 9 10 9 0 16 -4 16 -10z m-600 -45 c10
-12 10 -15 -4 -15 -9 0 -16 7 -16 15 0 8 2 15 4 15 2 0 9 -7 16 -15z m567 -87
c-3 -8 -6 -5 -6 6 -1 11 2 17 5 13 3 -3 4 -12 1 -19z"/>
<path d="M1561 1981 c-7 -5 -19 -37 -26 -72 -7 -35 -24 -116 -38 -179 -78
-346 -76 -334 -61 -349 10 -11 16 -12 27 -3 15 13 33 82 109 437 11 55 25 106
31 113 7 8 45 12 127 12 140 0 177 -12 220 -72 57 -78 36 -182 -53 -272 -56
-56 -116 -82 -191 -85 -65 -2 -82 -10 -73 -35 5 -12 21 -16 69 -16 163 0 338
164 338 317 0 68 -38 143 -93 179 -41 29 -44 29 -207 32 -91 1 -171 -2 -179
-7z m29 -30 c0 -6 -4 -13 -10 -16 -5 -3 -10 1 -10 9 0 9 5 16 10 16 6 0 10 -4
10 -9z m384 -52 c14 -17 26 -38 26 -47 -1 -14 -3 -13 -12 3 -6 11 -22 32 -36
48 -14 15 -21 27 -15 27 6 0 23 -14 37 -31z"/>
<path d="M2214 1975 c-11 -28 7 -35 100 -35 l94 0 -13 -57 c-7 -32 -27 -121
-43 -198 -17 -77 -43 -192 -57 -255 -14 -63 -23 -120 -20 -127 3 -9 33 -13
104 -13 112 0 124 6 135 67 4 21 13 65 21 98 31 129 95 427 95 441 0 8 -10 14
-24 14 -27 0 -27 -1 -112 -387 l-37 -173 -63 0 c-46 0 -62 3 -59 13 7 20 135
605 135 616 0 7 -44 11 -125 11 -101 0 -127 -3 -131 -15z m226 -25 c0 -5 -4
-10 -9 -10 -6 0 -13 5 -16 10 -3 6 1 10 9 10 9 0 16 -4 16 -10z m-116 -615 c3
-9 0 -15 -9 -15 -8 0 -15 7 -15 15 0 8 4 15 9 15 5 0 11 -7 15 -15z m156 0 c0
-8 -4 -15 -10 -15 -5 0 -7 7 -4 15 4 8 8 15 10 15 2 0 4 -7 4 -15z"/>
<path d="M637 1743 c-4 -3 -7 -15 -7 -25 0 -17 15 -18 263 -18 145 0 266 -2
269 -5 3 -3 -1 -31 -8 -63 -8 -31 -21 -91 -29 -132 -28 -135 -34 -150 -56
-150 -15 0 -19 5 -15 18 2 9 12 51 21 92 10 41 23 100 30 130 8 30 10 58 7 62
-10 10 -483 11 -493 1 -7 -7 -59 -224 -63 -263 0 -10 8 -15 24 -15 23 0 27 6
48 95 12 52 25 105 28 118 4 22 5 22 200 22 l196 0 -4 -27 c-3 -16 -17 -81
-32 -146 -15 -66 -25 -125 -22 -133 7 -19 119 -19 135 -1 6 8 17 45 26 83 8
38 28 129 45 203 17 74 28 141 26 148 -4 10 -65 13 -294 13 -159 0 -292 -3
-295 -7z m563 -38 c0 -8 -4 -15 -9 -15 -5 0 -11 7 -15 15 -3 9 0 15 9 15 8 0
15 -7 15 -15z m-556 -90 c-4 -8 -8 -15 -10 -15 -2 0 -4 7 -4 15 0 8 4 15 10
15 5 0 7 -7 4 -15z m436 5 c0 -5 -4 -10 -10 -10 -5 0 -10 5 -10 10 0 6 5 10
10 10 6 0 10 -4 10 -10z m36 -286 c-4 -9 -9 -15 -11 -12 -3 3 -3 13 1 22 4 9
9 15 11 12 3 -3 3 -13 -1 -22z m-72 1 c3 -9 0 -15 -9 -15 -8 0 -15 7 -15 15 0
8 4 15 9 15 5 0 11 -7 15 -15z"/>
<path d="M419 1095 c-31 -66 -33 -75 -17 -75 10 0 18 7 18 15 0 9 9 15 25 15
16 0 25 -6 25 -15 0 -8 7 -15 16 -15 12 0 15 6 10 23 -3 12 -6 46 -6 75 0 43
-3 52 -18 52 -12 0 -28 -23 -53 -75z m51 5 c0 -20 -5 -30 -15 -30 -18 0 -18 1
-5 34 13 34 20 33 20 -4z"/>
<path d="M640 1115 c-15 -73 -11 -89 23 -93 37 -4 63 20 72 66 3 20 9 47 12
60 4 15 1 22 -10 22 -11 0 -19 -18 -27 -57 -12 -54 -22 -72 -44 -73 -8 0 -3
54 11 108 4 16 1 22 -10 22 -11 0 -19 -17 -27 -55z"/>
<path d="M870 1155 c0 -8 7 -15 15 -15 13 0 15 -7 9 -37 -4 -21 -11 -48 -15
-60 -7 -19 -5 -23 10 -23 15 0 21 13 30 60 10 49 16 60 32 60 10 0 19 7 19 15
0 11 -12 15 -50 15 -38 0 -50 -4 -50 -15z"/>
<path d="M1094 1145 c-8 -13 -16 -46 -17 -72 -2 -46 -1 -48 26 -51 39 -5 53
10 67 69 10 39 9 53 0 64 -19 23 -57 18 -76 -10z m50 -42 c-7 -42 -27 -69 -42
-59 -7 4 -7 18 0 44 13 47 16 52 34 52 12 0 13 -8 8 -37z"/>
<path d="M1316 1158 c-2 -7 -11 -41 -19 -75 -12 -53 -13 -63 -1 -63 7 0 16 12
19 28 3 15 10 41 14 57 8 26 9 22 10 -27 1 -75 20 -76 50 -2 28 67 38 65 17
-5 -13 -44 -13 -51 -1 -51 8 0 17 10 20 23 30 132 30 127 5 127 -14 0 -27 -15
-44 -52 l-25 -53 0 53 c-1 45 -4 52 -21 52 -11 0 -22 -6 -24 -12z"/>
<path d="M1586 1148 c-9 -13 -17 -46 -18 -74 -3 -48 -3 -49 29 -52 41 -4 64
29 66 95 2 47 1 48 -30 51 -24 2 -35 -2 -47 -20z m54 -20 c0 -35 -22 -88 -37
-88 -13 0 -14 8 -9 42 4 22 9 45 12 50 8 13 34 10 34 -4z"/>
<path d="M1796 1155 c-3 -10 1 -15 13 -15 20 0 20 -4 -4 -92 -5 -21 -4 -28 8
-28 9 0 19 18 27 48 18 72 18 72 34 72 7 0 16 7 20 15 4 12 -4 15 -43 15 -34
0 -51 -5 -55 -15z"/>
<path d="M2006 1103 c-19 -82 -19 -83 -3 -83 8 0 19 21 26 53 6 28 14 62 17
75 5 15 2 22 -8 22 -10 0 -21 -22 -32 -67z"/>
<path d="M2170 1148 c0 -63 14 -128 26 -128 8 0 30 31 49 70 40 79 40 80 22
80 -8 0 -25 -26 -40 -57 l-25 -58 -1 58 c-1 44 -5 57 -16 57 -9 0 -15 -9 -15
-22z"/>
<path d="M2392 1110 c-7 -34 -15 -67 -19 -75 -4 -12 5 -15 41 -15 32 0 46 4
46 14 0 9 -8 12 -25 8 -20 -3 -25 0 -25 17 0 16 6 21 25 21 16 0 25 6 25 15 0
9 -9 15 -21 15 -30 0 -18 24 13 28 15 2 29 10 32 18 4 11 -4 14 -37 14 l-43 0
-12 -60z"/>
</g>
</svg>
